<svg xmlns="http://www.w3.org/2000/svg" version="1.1" xmlns:xlink="http://www.w3.org/1999/xlink" xmlns:svgjs="http://svgjs.dev/svgjs" width="2000" height="717" viewBox="0 0 2000 717"><g transform="matrix(1,0,0,1,-1.2121212121213603,-1.1093280085208335)"><svg viewBox="0 0 396 142" data-background-color="#000000" preserveAspectRatio="xMidYMid meet" height="717" width="2000" xmlns="http://www.w3.org/2000/svg" xmlns:xlink="http://www.w3.org/1999/xlink"><g id="tight-bounds" transform="matrix(1,0,0,1,0.24000000000003752,0.21969954980468742)"><svg viewBox="0 0 395.5199999999999 141.56060090039063" height="141.56060090039063" width="395.5199999999999"><g><svg viewBox="0 0 682.9406691712707 244.43135999999993" height="141.56060090039063" width="395.5199999999999"><g transform="matrix(1,0,0,1,287.4206691712707,31.165956243093888)"><svg viewBox="0 0 395.52 182.09944751381215" height="182.09944751381215" width="395.52"><g id="textblocktransform"><svg viewBox="0 0 395.52 182.09944751381215" height="182.09944751381215" width="395.52" id="textblock"><g><svg viewBox="0 0 395.52 182.09944751381215" height="182.09944751381215" width="395.52"><g transform="matrix(1,0,0,1,0,0)"><svg width="395.52" viewBox="0.2 -36.62 79.53 36.62" height="182.09944751381215" data-palette-color="#0a58ca"><path d="M8.96 0L8.96-2.69Q11.72-2.69 12.62-3.14 13.53-3.59 13.79-4.1 14.06-4.61 14.06-5.35L14.06-5.35 14.06-33.79 9.06-33.79Q5.03-33.79 4.44-29.52L4.44-29.52 3.74-24.56 0.2-24.58 1.27-36.62 32.35-36.62 33.42-24.58 29.88-24.56 29.17-29.52Q28.91-31.49 28.13-32.32L28.13-32.32Q26.71-33.79 24.56-33.79L24.56-33.79 19.56-33.79 19.56-5.35Q19.56-3.81 20.57-3.25 21.58-2.69 24.66-2.69L24.66-2.69 24.66 0 8.96 0ZM35.62 0L35.62-2.69Q37.91-2.69 38.62-3.14 39.33-3.59 39.52-4.1 39.72-4.61 39.72-5.35L39.72-5.35 39.72-31.27Q39.72-32.86 39.18-33.25L39.18-33.25Q38.21-33.94 35.62-33.94L35.62-33.94 35.62-36.62 47.14-36.62 57.96-8.37 68.33-36.62 79.73-36.62 79.73-33.94Q77.41-33.94 76.71-33.48 76-33.03 75.8-32.52 75.61-32.01 75.61-31.27L75.61-31.27 75.61-5.35Q75.61-3.78 76.17-3.37L76.17-3.37Q77.15-2.69 79.73-2.69L79.73-2.69 79.73 0 66.18 0 66.18-2.69Q68.48-2.69 69.15-3.14 69.82-3.59 69.99-4.1 70.16-4.61 70.16-5.35L70.16-5.35 70.16-31.4 58.84 0 56.13 0 43.63-31.42 43.63-5.35Q43.63-3.76 44.16-3.37L44.16-3.37Q45.14-2.69 47.73-2.69L47.73-2.69 47.73 0 35.62 0Z" opacity="1" transform="matrix(1,0,0,1,0,0)" fill="#0a58ca" class="wordmark-text-0" data-fill-palette-color="primary" id="text-0"></path></svg></g></svg></g></svg></g></svg></g><g><svg viewBox="0 0 244.43135999999998 244.43135999999993" height="244.43135999999993" width="244.43135999999998"><g><svg></svg></g><g id="icon-0"><svg viewBox="0 0 244.43135999999998 244.43135999999993" height="244.43135999999993" width="244.43135999999998"><g><path transform="scale(2.44431,2.44431)" d="M30 100c-16.569 0-30-13.431-30-30v-40c0-16.569 13.431-30 30-30h40c16.569 0 30 13.431 30 30v40c0 16.569-13.431 30-30 30z" fill="#0a58ca" fill-rule="nonzero" stroke="none" stroke-width="1" stroke-linecap="butt" stroke-linejoin="miter" stroke-miterlimit="10" stroke-dasharray="" stroke-dashoffset="0" font-family="none" font-weight="none" font-size="none" text-anchor="none" style="mix-blend-mode: normal" data-fill-palette-color="accent"></path></g><g transform="matrix(1,0,0,1,48.886272000000005,51.477901267553406)"><svg viewBox="0 0 146.65881599999997 141.47555746489311" height="141.47555746489311" width="146.65881599999997"><g><svg xmlns="http://www.w3.org/2000/svg" data-name="list 3 tick copy" viewBox="8.150088894702716 8.32173908991432 82.19737635098711 79.29233276646339" x="0" y="0" height="141.47555746489311" width="146.65881599999997" class="icon-dxe-0" data-fill-palette-color="quaternary" id="dxe-0"><path d="M28 9C27 10.46 26 12 25 13.46 23.51 12.3 20.11 12.83 18.46 12.98A60.4 60.4 0 0 0 9.36 14.76 0.88 0.88 0 0 0 8.97 16.24 61 61 0 0 0 8.45 30 0.93 0.93 0 0 0 9.29 31.59Q10.2 31.36 11.11 31.19C11.66 31.08 12.2 31 12.75 30.92 12.8 30.92 12.86 31.1 12.91 31.09A26 26 0 0 1 16.51 30.97 0.67 0.67 0 0 1 16.93 31.23 1.5 1.5 0 0 0 19.31 30.7C20.07 30.7 20.84 30.75 21.61 30.84H21.92C22.71 30.94 23.5 31.04 24.29 31.19A0.91 0.91 0 0 0 25.29 30.76C25.99 30.84 26.73 30.16 26.21 29.45 25.26 28.16 25.73 25.59 25.73 24.09V18.45C25.73 18.23 25.73 18.05 25.78 17.83V17.77Q28 14 30.55 10.48C31.68 8.91 29.08 7.41 28 9M22.2 29.07L21.58 29 20.33 28.88H20.1Q21.83 24.93 23.88 21.17V25.43A13.2 13.2 0 0 0 24.08 29.36C23.45 29.24 22.83 29.15 22.2 29.07M13.1 29.07L12.32 29.17C11.63 29.27 10.94 29.39 10.25 29.53 10.18 28.53 10.13 27.48 10.11 26.46V22.18C11.82 24.33 13.26 26.69 14.96 28.85L14.36 28.91ZM18.43 14.76A13.6 13.6 0 0 1 22.6 14.7 3 3 0 0 1 23.09 14.87L23.24 14.94 23.44 15.07A1.2 1.2 0 0 1 23.74 15.39 106 106 0 0 0 17.55 27.25C15.3 24.52 13.55 21.4 11.19 18.77A1.4 1.4 0 0 0 10.49 18.34C10.57 17.64 10.64 16.94 10.75 16.24A51.5 51.5 0 0 1 18.43 14.78Z" fill="#000000" data-fill-palette-color="quaternary"></path><path d="M9.29 59.59A34.4 34.4 0 0 1 24.29 59.19 0.91 0.91 0 0 0 25.29 58.77C25.99 58.85 26.73 58.17 26.21 57.47 25.26 56.18 25.73 53.61 25.73 52.11V47C25.73 45.53 26.41 42.6 25.1 41.44S20.1 40.74 18.45 40.89A60.4 60.4 0 0 0 9.35 42.67 0.88 0.88 0 0 0 8.96 44.15 61 61 0 0 0 8.45 58 0.93 0.93 0 0 0 9.29 59.59M10.76 44.22A51.5 51.5 0 0 1 18.43 42.74 13.6 13.6 0 0 1 22.6 42.68C24.37 43.11 23.9 44.17 23.89 45.75V53.37A13.2 13.2 0 0 0 24.09 57.3 36.6 36.6 0 0 0 10.26 57.5 59 59 0 0 1 10.76 44.23Z" fill="#000000" data-fill-palette-color="quaternary"></path><path d="M66.13 24C73.67 25.26 81.08 26.29 88.5 23.88 89.61 23.52 89.14 21.76 88.02 22.12 78.76 25.12 69.6 22.49 60.29 21.22A87.8 87.8 0 0 0 35.2 21.53C34.04 21.7 34.53 23.46 35.68 23.29 46 21.76 55.87 22.3 66.13 24" fill="#000000" data-fill-palette-color="quaternary"></path><path d="M61.5 48A87.8 87.8 0 0 0 36.41 48.31C35.25 48.48 35.74 50.24 36.89 50.07 47.2 48.51 57.08 49.07 67.34 50.77 74.88 52.03 82.29 53.06 89.71 50.65 90.82 50.29 90.35 48.53 89.23 48.89 80 51.9 70.81 49.27 61.5 48" fill="#000000" data-fill-palette-color="quaternary"></path><path d="M89.23 75.65C79.97 78.65 70.81 76.02 61.5 74.75A87.8 87.8 0 0 0 36.41 75.06C35.25 75.23 35.74 76.99 36.89 76.82 47.2 75.26 57.08 75.82 67.34 77.52 74.88 78.78 82.29 79.81 89.71 77.4 90.83 77 90.35 75.28 89.23 75.65" fill="#000000" data-fill-palette-color="quaternary"></path><path d="M28 65C27 66.45 26 67.92 25 69.42 23.52 68.24 20.09 68.77 18.44 68.93A60.4 60.4 0 0 0 9.34 70.71 0.88 0.88 0 0 0 8.95 72.19 61 61 0 0 0 8.45 86 0.93 0.93 0 0 0 9.29 87.59Q10.2 87.37 11.1 87.19C11.65 87.08 12.2 86.99 12.75 86.91H12.88A35 35 0 0 1 16.46 86.59C16.62 86.76 16.77 86.93 16.93 87.1A1.49 1.49 0 0 0 19.34 86.62C20.1 86.62 20.86 86.72 21.63 86.81H21.93C22.72 86.9 23.5 87.02 24.29 87.18A0.91 0.91 0 0 0 25.29 86.76C25.99 86.84 26.73 86.16 26.21 85.46 25.26 84.17 25.73 81.6 25.73 80.1V75C25.73 74.82 25.84 74.62 25.86 74.41S26.01 74.01 26.01 73.79C27.01 71.3 29.01 68.87 30.67 66.49 31.78 64.91 29.08 63.41 28 65M22.21 85L21.57 84.93 20.35 84.81H20.13Q21.85 80.89 23.88 77.15V81.35A13.2 13.2 0 0 0 24.08 85.28C23.45 85.18 22.83 85.09 22.21 85M13.11 85L12.29 85.11C11.61 85.21 10.93 85.33 10.29 85.47 10.21 84.3 10.16 83.13 10.14 81.96V78.18C11.84 80.32 13.26 82.65 14.94 84.8L14.3 84.87ZM18.43 70.7A13.6 13.6 0 0 1 22.6 70.64 3 3 0 0 1 23.1 70.81L23.24 70.88 23.46 71.02S23.66 71.08 23.7 71.12 24 71.27 24 71.35C21 75.18 19.5 79.14 17.68 83.24 15.43 80.51 13.68 77.39 11.26 74.76A1.45 1.45 0 0 0 10.53 74.33C10.61 73.61 10.67 72.89 10.78 72.18A51 51 0 0 1 18.43 70.72Z" fill="#000000" data-fill-palette-color="quaternary"></path></svg></g></svg></g></svg></g></svg></g></svg></g><defs></defs></svg><rect width="395.5199999999999" height="141.56060090039063" fill="none" stroke="none" visibility="hidden"></rect></g></svg></g></svg>